<svg width="217" height="40" viewBox="0 0 217 40" fill="none" xmlns="http://www.w3.org/2000/svg">
<g id="yagpal-logo">
<path id="Vector" d="M26.0335 28.0424V40H11.8121L14.2094 38.4369C14.8141 37.8095 15.1518 36.9712 15.1518 36.0996V28.0558C15.1518 26.0535 14.5191 24.1033 13.3418 22.4828C9.6149 17.3543 1.32283 6.15097 0 6.15097C5.78789 1.94754 14.1627 12.1418 19.7878 14.3349C25.4462 16.5414 36.8004 3.60141 41.1853 6.15097C39.7998 6.15097 31.5357 17.361 27.8302 22.4868C26.6609 24.1033 26.0335 26.0455 26.0335 28.0411V28.0424Z" fill="#156E63"/>
<path id="Vector_2" d="M60.0374 33.3712H46.5741L44.0379 40H32.3887L44.3476 8.74191C44.9443 7.18147 46.442 6.15231 48.1119 6.15231H58.4996C60.1695 6.15231 61.6672 7.18281 62.2639 8.74191L74.2228 40H62.5736L60.0374 33.3712ZM57.0166 25.4742L53.6822 16.7603C53.55 16.4146 53.0615 16.4146 52.9293 16.7603L49.5962 25.4742H57.0166Z" fill="#156E63"/>
<path id="Vector_3" d="M148.316 14.3977V18.7786C148.316 20.9664 147.448 23.0635 145.901 24.6106C144.354 26.1576 142.257 27.0266 140.069 27.0253H124.82V40H113.94V10.1822C113.94 7.95568 115.745 6.15231 117.97 6.15231H140.071C140.914 6.15231 141.754 6.28045 142.559 6.53541C145.987 7.62197 148.317 10.8029 148.317 14.399L148.316 14.3977ZM135.514 19.127C135.514 19.127 137.436 19.127 137.436 16.5881C137.436 14.0493 135.514 14.0493 135.514 14.0493H125.223C125 14.0493 124.82 14.2295 124.82 14.4524V19.127H135.514Z" fill="#FBA31C"/>
<path id="Vector_4" d="M171.157 33.3712H157.693L155.157 40H143.507L155.466 8.74191C156.062 7.18147 157.56 6.15231 159.23 6.15231H169.619C171.289 6.15231 172.786 7.18281 173.383 8.74191L185.342 40H173.693L171.157 33.3712ZM168.136 25.4742L164.801 16.7603C164.669 16.4146 164.181 16.4146 164.049 16.7603L160.714 25.4742H168.135H168.136Z" fill="#FBA31C"/>
<path id="Vector_5" d="M216.906 40H187.663V7.36034C187.663 6.69292 188.205 6.15097 188.873 6.15097H197.336C198.003 6.15097 198.545 6.69292 198.545 7.36034V32.1017H216.906V39.9987V40Z" fill="#FBA31C"/>
<path id="Vector_6" d="M29.4961 5.85464H25.848C25.6264 5.85464 25.4448 6.03617 25.4448 6.25776V7.34966C25.4448 9.68698 23.6148 11.6906 21.2774 11.7346C18.9001 11.7747 16.9525 9.8565 16.9525 7.48715V6.25776C16.9525 6.03617 16.771 5.85464 16.5494 5.85464H15.6057V7.32564C15.8513 7.36969 16.0328 7.57926 16.0328 7.83688C16.0328 8.12654 15.7992 8.36148 15.5082 8.36148C15.2172 8.36148 14.989 8.12788 14.989 7.83688C14.989 7.57926 15.1745 7.36568 15.4161 7.32564V5.85464H12.9053L20.845 1.94888C21.0665 1.83541 21.3322 1.83541 21.5538 1.94888L29.4934 5.85464H29.4961ZM20.9664 0.459187L20.4592 0.532604L20.8263 0.890342L20.7395 1.39491L21.1933 1.15598L21.6472 1.39491L21.5604 0.890342L21.9275 0.532604L21.4203 0.459187L21.1933 0L20.9664 0.459187ZM22.9914 1.176L22.671 1.22272L22.9033 1.44831L22.8486 1.76734L23.1356 1.6165L23.4225 1.76734L23.3678 1.44831L23.6001 1.22272L23.2797 1.176L23.1369 0.886338L22.9941 1.176H22.9914ZM19.1097 1.176L18.7893 1.22272L19.0216 1.44831L18.9668 1.76734L19.2538 1.6165L19.5408 1.76734L19.4861 1.44831L19.7183 1.22272L19.398 1.176L19.2552 0.886338L19.1123 1.176H19.1097Z" fill="#FBA31C"/>
<path id="Vector_7" d="M110.507 26.8598C109.097 38.4529 100.94 40 92.0724 40C82.3186 40 73.4232 38.1299 73.4232 23.0755C73.4232 8.02109 82.3186 6.15097 92.0724 6.15097C100.944 6.15097 109.104 7.64733 110.508 19.2912H99.8972C98.7533 14.5819 95.3361 13.7182 92.0724 13.7182C88.0758 13.7182 83.8484 15.0117 83.8484 23.0742C83.8484 31.1366 88.0758 32.4301 92.0724 32.4301C94.6032 32.4301 97.2262 31.8961 98.8093 29.4654L94.0893 29.4C93.4286 29.3906 92.8973 28.8527 92.8973 28.1906V23.504C92.8973 22.8365 93.4392 22.2946 94.1067 22.2946H110.584C110.584 22.2946 110.708 24.8762 110.507 26.8584V26.8598Z" fill="#156E63"/>
</g>
</svg>
